<?xml version="1.0" standalone="no"?>
<!DOCTYPE svg PUBLIC "-//W3C//DTD SVG 20010904//EN"
 "http://www.w3.org/TR/2001/REC-SVG-20010904/DTD/svg10.dtd">
<svg version="1.0" xmlns="http://www.w3.org/2000/svg"
 width="500.000000pt" height="500.000000pt" viewBox="0 0 500.000000 500.000000"
 preserveAspectRatio="xMidYMid meet">

<g transform="translate(0.000000,500.000000) scale(0.100000,-0.100000)"
fill="#000000" stroke="none">
<path d="M1730 4489 c-425 -20 -682 -113 -888 -322 -95 -96 -143 -162 -196
-271 -124 -254 -146 -458 -146 -1396 0 -567 11 -887 35 -1035 83 -520 410
-847 930 -930 148 -24 468 -35 1035 -35 567 0 887 11 1035 35 384 62 667 258
819 569 124 254 146 458 146 1396 0 567 -11 887 -35 1035 -72 448 -326 755
-731 885 -134 43 -244 58 -489 70 -252 11 -1269 11 -1515 -1z m1672 -368 c134
-16 238 -44 338 -92 166 -79 299 -251 350 -452 40 -161 45 -265 45 -1077 0
-812 -5 -916 -45 -1077 -51 -202 -183 -372 -351 -453 -99 -47 -197 -74 -340
-92 -147 -18 -1646 -19 -1801 0 -239 29 -376 87 -505 217 -126 125 -184 262
-215 506 -10 79 -13 300 -13 909 0 713 2 819 18 929 32 225 83 338 211 467
151 152 311 207 655 224 230 12 1536 4 1653 -9z"/>
<path d="M3515 3801 c-72 -18 -142 -77 -169 -143 -23 -54 -20 -143 5 -195 69
-142 264 -179 377 -70 70 67 94 152 67 242 -34 120 -161 195 -280 166z"/>
<path d="M2381 3519 c-118 -14 -217 -45 -346 -109 -450 -223 -664 -739 -510
-1227 32 -101 94 -222 154 -299 50 -65 180 -188 243 -230 311 -208 683 -236
1017 -79 120 58 197 113 297 216 301 310 375 756 190 1144 -58 121 -107 191
-202 286 -167 170 -378 271 -621 299 -99 11 -117 11 -222 -1z m314 -383 c122
-43 179 -79 270 -171 141 -140 195 -270 195 -465 0 -196 -54 -325 -194 -465
-139 -139 -275 -197 -461 -198 -119 0 -193 16 -290 64 -187 91 -310 241 -361
439 -22 84 -22 235 0 320 58 231 236 413 470 481 82 25 296 21 371 -5z"/>
</g>
</svg>
