<svg version="1.1" id="Layer_1" xmlns="http://www.w3.org/2000/svg" xmlns:xlink="http://www.w3.org/1999/xlink" x="0px" y="0px"
	 width="100%" viewBox="0 0 496 496" enable-background="new 0 0 496 496" xml:space="preserve">
<path fill="#000000" opacity="1.000000" stroke="none" 
	d="
M497.000000,251.533142 
	C494.761108,254.248230 492.537506,256.523224 489.256409,257.221283 
	C480.404572,259.104553 473.657654,253.294312 474.286835,244.179504 
	C474.514954,240.873962 474.779297,237.482071 475.712250,234.332520 
	C477.654449,227.775833 475.316742,223.026367 469.822174,218.759949 
	C467.921875,224.152786 466.259338,229.459106 464.192719,234.603088 
	C460.758301,243.151688 456.744659,251.402130 449.099640,257.138550 
	C436.507874,266.586761 423.622833,264.260223 414.970642,251.045197 
	C414.522644,250.360977 414.051025,249.692276 413.394958,248.729523 
	C407.490570,250.780502 401.756927,252.020966 397.792969,258.110443 
	C391.323212,268.049316 383.413757,269.594330 369.917908,265.157562 
	C366.734741,269.954498 361.931976,270.108795 357.143372,268.638306 
	C354.196381,267.733337 351.759460,268.007996 349.000824,268.945923 
	C339.955048,272.021515 332.735809,266.645111 332.649078,256.998291 
	C332.574554,248.715347 335.615601,241.014145 336.988312,233.003265 
	C337.184509,231.858398 337.549622,230.721115 337.578827,229.573746 
	C337.630890,227.528397 337.433441,225.315475 335.146637,224.584473 
	C332.886078,223.861877 331.374023,225.420044 330.241974,227.177856 
	C326.018250,233.736389 324.084564,241.159912 322.460999,248.645630 
	C321.194946,254.483139 320.377716,260.416565 319.255829,266.287262 
	C318.409576,270.715485 315.397583,272.883850 311.496002,272.068909 
	C307.182617,271.167999 305.620575,268.726318 306.296692,264.030670 
	C307.622955,254.819672 308.927948,245.605591 310.238861,236.392380 
	C310.332489,235.734299 310.540710,235.055359 310.459503,234.416122 
	C310.151794,231.993317 310.601135,228.788956 307.881592,227.865250 
	C304.934448,226.864288 303.592316,229.864670 302.351074,231.902740 
	C296.486542,241.532089 294.830963,252.417145 293.277588,263.313446 
	C293.184052,263.969604 293.256989,264.648041 293.187805,265.309357 
	C292.437744,272.479462 290.578094,274.945190 285.714630,275.246765 
	C280.933990,275.543243 278.839233,273.405151 277.113770,266.378265 
	C274.885986,267.365265 273.649994,269.424133 271.987946,270.972748 
	C264.733826,277.731934 255.091705,279.875275 247.656509,276.297302 
	C238.732178,272.002747 232.076645,261.226624 232.990189,252.004868 
	C233.930405,242.514008 237.317673,233.885223 243.355652,226.455017 
	C247.048111,221.911194 251.804565,218.918167 257.787445,218.398499 
	C266.026794,217.682816 271.076599,221.635773 272.560150,229.805527 
	C274.588745,240.977142 267.198456,253.494598 257.378418,255.867401 
	C253.454926,256.815430 249.888245,255.039230 246.118164,254.802078 
	C246.280624,264.119965 253.521515,268.799957 261.644928,265.045746 
	C266.569855,262.769745 269.703339,258.711548 272.286224,254.151199 
	C277.691071,244.608398 280.509552,234.179047 282.458008,223.502609 
	C283.160675,219.652206 283.904510,216.216965 288.649475,215.798798 
	C292.882935,215.425705 296.827240,215.618988 297.703461,221.150528 
	C306.669189,213.944794 313.426270,211.695114 321.067291,223.431427 
	C322.932526,221.210388 324.605713,218.996109 326.507019,216.998962 
	C330.825714,212.462585 337.553741,210.768860 342.418243,212.837326 
	C347.549622,215.019272 350.021301,219.728058 349.537231,226.915985 
	C349.303375,230.389008 348.846863,233.864685 348.218842,237.289230 
	C347.351166,242.020767 346.108643,246.684204 345.266266,251.419418 
	C344.899567,253.480652 344.394958,256.207458 346.857056,257.188873 
	C349.606201,258.284729 351.037872,255.619293 352.344421,253.850220 
	C354.861328,250.442368 355.947571,246.389847 356.615417,242.249664 
	C359.952271,221.563263 362.360291,200.771667 363.709259,179.857559 
	C364.016479,175.094467 369.137482,171.132828 373.843964,171.716110 
	C376.637970,172.062378 377.331055,173.965256 377.522797,176.262329 
	C377.981598,181.758987 377.283264,187.213730 376.810944,192.674469 
	C376.272217,198.902863 375.726257,205.130630 375.126038,212.017395 
	C378.180420,210.357986 380.399841,208.939407 382.782745,207.893188 
	C395.376984,202.363525 406.606842,209.712082 407.294128,223.958344 
	C407.493286,228.086029 407.324707,232.231461 407.324707,236.734406 
	C411.531128,235.579803 411.811646,232.354080 412.698029,229.403305 
	C415.508453,220.047455 419.002228,211.094208 427.976288,205.675171 
	C433.872345,202.114822 440.001221,201.440613 445.954132,205.062820 
	C451.633209,208.518402 451.684479,214.453445 451.272980,220.206909 
	C450.485809,231.213928 443.370483,239.327576 433.736511,240.970200 
	C430.607513,241.503677 427.963501,239.581268 424.636810,239.945068 
	C423.693939,244.220871 426.088165,246.996140 429.001465,249.212387 
	C432.533508,251.899292 436.579681,251.573151 440.339294,249.656387 
	C444.281036,247.646729 447.171143,244.457733 449.383545,240.584717 
	C455.331879,230.171539 458.429260,218.829254 460.573914,207.151566 
	C461.579224,201.677444 464.742310,198.984680 470.127502,199.110535 
	C472.365204,199.162842 474.906403,199.756683 475.139648,202.317825 
	C475.712585,208.609421 479.980377,212.509659 484.026306,216.333328 
	C488.517914,220.578140 489.105530,225.334641 487.882111,230.884613 
	C487.133789,234.279327 486.118927,237.651077 486.357025,241.204254 
	C486.448608,242.570740 486.492889,243.960266 488.115387,244.416656 
	C489.607910,244.836472 490.653137,243.962814 491.599335,242.969864 
	C493.545441,240.927612 493.609222,237.602448 496.649658,236.032501 
	C497.000000,241.022095 497.000000,246.044189 497.000000,251.533142 
M385.514496,236.976456 
	C388.322174,238.853714 392.063232,242.188507 393.993408,237.458191 
	C395.850647,232.906570 395.747040,227.341583 393.070099,222.516541 
	C391.904449,220.415497 390.440002,218.513428 387.681915,218.900482 
	C384.673584,219.322662 382.881409,221.439789 382.499023,224.218613 
	C381.910400,228.496231 381.670929,232.879074 385.514496,236.976456 
M432.300293,229.784103 
	C437.565247,228.009247 441.363525,223.267258 441.635712,218.188385 
	C441.739502,216.252426 441.313202,214.575943 439.671234,213.366730 
	C437.809723,211.995773 436.208374,213.020599 434.629181,213.941284 
	C431.315155,215.873367 429.589569,219.146454 427.812347,222.317978 
	C425.312744,226.778610 426.186371,228.445038 432.300293,229.784103 
M260.315491,240.736069 
	C263.782593,234.752991 264.034576,230.210068 260.986389,228.640839 
	C258.200897,227.206848 253.807220,229.824585 250.847778,234.988556 
	C249.187134,237.886246 246.118668,241.204071 250.071777,244.230728 
	C254.186371,247.381012 257.026001,243.797836 260.315491,240.736069 
M371.682281,244.428986 
	C371.107025,250.274170 372.793243,253.829453 377.125763,255.224182 
	C380.786255,256.402588 383.784607,255.322098 386.246307,251.720963 
	C380.053192,249.755585 375.591187,246.151764 372.643616,240.140778 
	C372.277710,241.830292 372.069275,242.792633 371.682281,244.428986 
z"/>
<path fill="#000000" opacity="1.000000" stroke="none" 
	d="
M1.000000,282.463196 
	C2.867311,269.985748 7.522803,259.344269 16.383478,250.776581 
	C24.277163,243.143921 33.318367,238.927307 44.461140,242.077774 
	C51.666256,244.114929 55.011959,251.647186 51.829483,257.840698 
	C49.772549,261.843750 47.261425,262.583282 43.289589,260.355682 
	C38.158512,257.477936 34.464043,257.844269 30.155598,261.658020 
	C17.133190,273.185211 15.761061,298.178406 27.451551,310.911346 
	C33.062225,317.022278 40.101730,317.392761 46.468822,312.005737 
	C53.639454,305.938843 56.305897,297.429871 58.523743,288.908020 
	C65.564034,261.856476 69.225060,234.159882 73.693733,206.620697 
	C75.152969,197.627838 78.465248,194.286545 85.778656,194.257965 
	C91.362167,194.236145 95.075165,197.750275 94.753235,203.238388 
	C93.620193,222.554504 99.312668,240.358871 106.620079,257.812714 
	C108.522133,262.355804 110.681892,266.790985 113.272438,272.482147 
	C114.496872,259.057251 115.147125,246.975220 116.790245,235.029770 
	C119.508514,215.268066 123.952164,195.976410 137.476212,180.262268 
	C144.995331,171.525497 154.311005,166.946121 166.174240,168.638824 
	C175.046738,169.904800 184.157928,179.112244 185.201721,188.121445 
	C185.754303,192.890762 182.622849,197.776627 178.225586,199.005997 
	C174.080841,200.164780 171.074600,198.321411 168.760605,193.202225 
	C165.158371,185.233124 160.040085,183.859238 153.061218,189.266861 
	C145.931976,194.791000 141.939316,202.489761 139.397308,210.893677 
	C134.605316,226.736130 133.362808,243.201050 131.342072,259.522614 
	C130.050385,269.955719 130.442947,280.448975 130.133545,290.918671 
	C129.908676,298.528015 124.635696,303.761169 117.108391,304.018921 
	C113.094841,304.156372 110.786583,301.750641 109.060127,298.373627 
	C99.979416,280.611267 90.958061,262.828125 84.749886,242.248642 
	C82.792259,253.275467 81.263351,263.010101 79.305237,272.657623 
	C76.261902,287.651917 73.264160,302.707397 65.883347,316.363892 
	C56.916828,332.954407 37.383968,339.324005 23.084801,330.072235 
	C12.624582,323.304291 5.684755,313.738251 2.768377,301.460236 
	C2.308169,299.522766 1.784258,297.600403 1.144897,295.335510 
	C1.000000,290.975464 1.000000,286.950897 1.000000,282.463196 
z"/>
<path fill="#000000" opacity="1.000000" stroke="none" 
	d="
M156.321136,287.921448 
	C142.546814,285.472046 136.719589,272.917725 138.996674,257.392456 
	C140.349426,248.169388 145.415070,240.294922 149.236328,232.126648 
	C153.614960,222.766922 166.320862,222.498489 173.929169,230.498032 
	C177.505020,234.257751 179.194534,238.909332 180.239380,243.859955 
	C180.533554,245.253876 180.143326,246.921753 182.307037,247.936813 
	C185.828766,242.829086 186.725128,237.062515 186.680130,231.057785 
	C186.644623,226.316986 187.897034,222.495270 193.007675,221.022507 
	C198.691849,219.384445 202.273468,221.826279 202.289581,227.793594 
	C202.315689,237.468353 203.406326,247.049500 204.415573,256.640686 
	C204.633240,258.709259 205.268768,260.733856 205.980988,264.021118 
	C212.686111,250.982437 216.610275,238.349030 219.610611,225.418015 
	C220.777725,220.387970 223.837570,218.566772 228.592453,218.736633 
	C233.832977,218.923828 236.501694,221.901611 235.060257,226.918106 
	C230.044250,244.374756 223.384964,261.257141 216.181549,277.906921 
	C214.238571,282.397858 208.261215,284.341400 202.211578,283.201660 
	C197.336731,282.283203 194.216965,279.662750 193.551132,274.319946 
	C192.731079,267.739410 191.463120,261.214691 190.273026,253.960617 
	C185.997116,259.761932 180.219086,263.222473 178.051636,270.603638 
	C175.118027,280.593933 168.075455,287.416504 156.321136,287.921448 
M159.669327,236.068039 
	C155.445419,239.813049 155.626343,244.608002 156.931396,249.364639 
	C158.098022,253.616821 161.537949,255.723419 165.713470,256.489838 
	C167.900681,256.891296 170.292923,256.968323 170.561111,253.850433 
	C171.024628,248.461639 170.254288,243.246826 167.480392,238.516830 
	C165.888306,235.802063 163.497940,234.604965 159.669327,236.068039 
M152.624496,271.826813 
	C158.774139,277.041168 164.884125,275.231567 166.511490,267.455811 
	C160.683441,266.906647 155.549301,264.539917 150.972977,260.222870 
	C149.636124,264.807922 150.265228,268.097626 152.624496,271.826813 
z"/>
</svg>