<?xml version="1.0" encoding="utf-8"?>
<!-- Generator: Adobe Illustrator 25.0.1, SVG Export Plug-In . SVG Version: 6.00 Build 0)  -->
<svg version="1.0" id="katman_1" xmlns="http://www.w3.org/2000/svg" xmlns:xlink="http://www.w3.org/1999/xlink" x="0px" y="0px"
	 viewBox="0 0 800 600" style="enable-background:new 0 0 800 600;" xml:space="preserve">
<style type="text/css">
	.st0{fill:#231F20;}
	.st1{fill:#FF671D;}
	.st2{fill:#FFFFFF;}
</style>
<g>
	<path class="st0" d="M302.7,345.5h-77.4C228.9,360,240.7,371,256,371c8.7,0,16.9-3.6,22.8-10.1l18.7,0.4
		c-8.1,15.8-24.3,25.7-42,25.7c-26.6,0-47.5-23.1-47.5-49.2c0-26.9,20.6-49,47.8-49c26.4,0.1,47.7,21.6,47.5,48c0,0,0,0,0,0
		C303.3,339.7,303.1,342.6,302.7,345.5L302.7,345.5z M255.6,304.8c-15.2,0-29.2,12-30.2,27.3h60.3
		C284.7,316.7,270.7,304.8,255.6,304.8z"/>
	<path class="st0" d="M380.2,384.6v-50.7c0-15.8-4.7-29.2-23.3-29.2c-17.2,0-24.6,13.3-24.6,29v50.9h-17.5v-93.3h16.3v9.9h0.3
		c6.7-8.9,16.5-12.5,27.3-12.5c13.3,0,25.8,5.2,33,16.7c4.6,7.1,5.9,15.7,5.9,23.9v55.3H380.2z"/>
	<path class="st0" d="M490.9,384.6v-13.3h-0.3c-7.8,10.8-20.1,15.7-33,15.7c-28,0-48.5-20.9-48.5-48.7s20.2-49.5,48.5-49.5
		c11.8,0,24.2,4.5,31.7,14h0.3v-42.8h17.5v124.7H490.9z M458.5,304.8c-18.5,0-32,15.2-32,33.4c0,17.5,14,32.9,31.9,32.9
		c18-0.1,32.6-14.8,32.5-32.8c0,0,0,0,0,0C490.9,319.4,477.6,304.8,458.5,304.8L458.5,304.8z"/>
	<polygon class="st0" points="557.8,415.8 539.6,415.8 553.2,382.8 516,291.3 534.8,291.3 562.3,363.7 590.5,291.3 609.3,291.3 
		557.8,415.8 	"/>
	<path class="st0" d="M659.2,387c-27.5,0-50.4-22.1-50.4-49.7s23.4-48.5,50.4-48.5c27.3,0,50.4,21.2,50.4,48.9
		C709.6,364.3,687.5,387,659.2,387z M659.2,304.8c-18.3-0.2-33.2,14.6-33.4,32.8c-0.2,18.3,14.6,33.2,32.8,33.4
		c18.3,0.2,33.2-14.6,33.4-32.8c0-0.2,0-0.4,0-0.5C692,319.5,677.4,304.8,659.2,304.8z"/>
	<polygon class="st0" points="723.9,384.6 723.9,259.9 741.4,259.9 741.4,384.6 723.9,384.6 	"/>
	<path class="st0" d="M75.9,366.2c0.6,2.5,1.6,5,2.9,7.2c1.2,1.9,2.6,3.5,4.3,5c5.8,5,13.3,7.6,20.9,7.3c8,0.1,15.9-2,22.9-5.9
		v-16.7c-6.2,3.9-13.3,6.1-20.6,6.4c-8.9,0-13.4-5.4-13.4-16.1v-45.7h29.3v-16.2H92.7v-30H75.4v30H58.6v16.2h16.2v41.4
		C74.5,354.9,74.9,360.6,75.9,366.2L75.9,366.2z"/>
	<path class="st0" d="M181.9,306.9c5.4,0,11.4,3,17.7,9l9.5-15.8c-7.7-7.1-17.1-10.3-22.6-10.3h-1.2c-6.3,0-16.7,0-25.3,13.8
		l-0.4,0.6l0.1-12.6h-18.1v92.6h18.1v-48.4c-0.2-7.3,2.2-14.4,6.6-20.2C170.7,309.8,176,306.9,181.9,306.9L181.9,306.9z"/>
	<path class="st1" d="M560.1,270.1c-0.8,0.1-1.6-0.5-1.7-1.3l-4.6-29.4c-1.5-9.6,0-17.6,5-24.1c5-6.5,12.3-10.3,21.6-11.8
		l121.8-19.3c0.8-0.1,1.6,0.5,1.7,1.3l9.4,58.8c0.1,0.8-0.5,1.6-1.3,1.7L560.1,270.1z"/>
	<path class="st2" d="M600.9,239.1c-1,3.6-4,6.3-7.7,6.9c-4.9,0.8-10.5-2.1-11.7-9.2c-1-6.3,2.4-11.5,8.3-12.4
		c3.7-0.7,7.5,1,9.5,4.2l5.9-0.9c-4-7.6-13.4-10.4-20.9-6.4c-6,3.2-9.2,9.8-8,16.5c1.1,8.4,8.7,14.3,17.1,13.3
		c0.2,0,0.5-0.1,0.7-0.1c6.6-1,11.7-6.2,12.8-12.7L600.9,239.1L600.9,239.1z"/>
	<path class="st2" d="M623.7,213.8c-8.7,1.3-14.7,9.4-13.5,18.1c1.1,8.9,9.2,15.2,18.1,14.1c8.9-1.1,15.2-9.2,14.1-18.1
		c-1.1-8.9-9.2-15.2-18.1-14.1C624.1,213.8,623.9,213.8,623.7,213.8z M628,240.3c-6,1-11.6-3-12.7-8.9c-1-6,3-11.6,8.9-12.7
		c6-1,11.6,3,12.6,8.9C638,233.6,634,239.2,628,240.3C628,240.3,628,240.3,628,240.3z"/>
	<path class="st2" d="M694.3,233.6l-2.9-17.9c-1.3-7.9-6.6-11.8-14.1-10.6c-4.6,0.8-7.3,2.8-8.9,6.6l-0.1,0.3l-0.2-0.3
		c-2.1-3.1-6.7-4-10-3.4c-3.4,0.3-6.3,2.4-7.8,5.4l0,0h-0.3l-0.7-3.1l-4.8,0.8l4.8,29.6l5.3-0.9l-2.7-16.6c-1-6.1,1-9.5,6.1-10.3
		c2.3-0.5,4.6,0.2,6.2,1.9c1.4,1.7,2.2,3.8,2.3,6l2.7,16.5l5.3-0.9l-2.7-16.6c-0.7-4.2-0.7-9.2,5.8-10.3c4.7-0.8,7.8,2,8.8,8
		l2.7,16.5L694.3,233.6L694.3,233.6z"/>
	<path class="st2" d="M575.3,251c0,2.4-1.9,4.3-4.3,4.3c-2.4,0-4.3-1.9-4.3-4.3c0-2.4,1.9-4.3,4.3-4.3c0,0,0,0,0,0
		C573.4,246.7,575.3,248.6,575.3,251C575.3,251,575.3,251,575.3,251z"/>
</g>
</svg>
