<?xml version="1.0" standalone="no"?>
<!DOCTYPE svg PUBLIC "-//W3C//DTD SVG 20010904//EN"
 "http://www.w3.org/TR/2001/REC-SVG-20010904/DTD/svg10.dtd">
<svg version="1.0" xmlns="http://www.w3.org/2000/svg"
 width="500.000000pt" height="500.000000pt" viewBox="0 0 500.000000 500.000000"
 preserveAspectRatio="xMidYMid meet">

<g transform="translate(0.000000,500.000000) scale(0.100000,-0.100000)"
fill="#000000" stroke="none">
<path d="M2430 4494 c-504 -46 -898 -220 -1234 -544 -486 -470 -685 -1115
-555 -1799 34 -176 103 -368 190 -527 22 -39 39 -78 39 -88 0 -10 -76 -245
-170 -523 -93 -279 -169 -508 -167 -509 2 -2 151 45 780 247 l287 92 118 -55
c184 -87 336 -134 527 -163 403 -60 804 2 1162 179 214 106 363 217 539 397
157 163 252 300 353 509 256 534 254 1150 -4 1688 -276 574 -836 986 -1465
1076 -112 16 -325 26 -400 20z m230 -324 c361 -30 663 -155 945 -392 243 -205
430 -507 515 -833 141 -548 -23 -1137 -430 -1545 -132 -132 -259 -222 -425
-304 -281 -139 -563 -194 -849 -167 -242 22 -397 68 -615 178 -80 40 -153 73
-164 73 -16 0 -192 -55 -564 -175 -24 -8 -43 -10 -43 -6 0 4 43 135 95 289 52
155 95 291 95 302 0 12 -19 49 -42 82 -146 216 -244 524 -255 808 -36 871 616
1611 1487 1690 123 11 124 11 250 0z"/>
<path d="M1823 3486 c-71 -33 -175 -161 -214 -265 -87 -234 -20 -476 234 -836
205 -290 459 -525 673 -620 132 -59 353 -149 409 -166 125 -39 307 -17 419 51
131 79 165 125 196 267 28 128 30 125 -168 232 -193 104 -273 141 -306 141
-17 0 -41 -20 -82 -67 -98 -115 -168 -183 -187 -183 -22 0 -176 76 -254 126
-94 59 -213 166 -287 255 -86 105 -186 264 -186 296 0 15 22 47 63 91 67 72
102 122 112 163 4 18 -15 82 -69 226 -83 223 -108 278 -130 286 -9 4 -55 9
-103 12 -66 4 -96 2 -120 -9z"/>
</g>
</svg>
